<?xml version="1.0" encoding="utf-8"?>
<svg version="1.1" xmlns:xlink="http://www.w3.org/1999/xlink" width="13px" height="23px" xmlns="http://www.w3.org/2000/svg">
  <g transform="matrix(1 0 0 1 -219 -147 )">
    <path d="M 12.5711805555556 0.4267578125  C 12.8570601851852 0.71126302083333  13 1.04817708333333  13 1.4375  L 13 21.5625  C 13 21.9518229166667  12.8570601851852 22.2887369791667  12.5711805555556 22.5732421875  C 12.2853009259259 22.8577473958333  11.9467592592593 23  11.5555555555556 23  C 11.1643518518519 23  10.8258101851852 22.8577473958333  10.5399305555556 22.5732421875  L 0.428819444444444 12.5107421875  C 0.142939814814815 12.2262369791667  0 11.8893229166667  0 11.5  C 0 11.1106770833333  0.142939814814815 10.7737630208333  0.428819444444444 10.4892578125  L 10.5399305555556 0.4267578125  C 10.8258101851852 0.142252604166665  11.1643518518519 0  11.5555555555556 0  C 11.9467592592593 0  12.2853009259259 0.142252604166665  12.5711805555556 0.4267578125  Z " fill-rule="nonzero" fill="#707070" stroke="none" transform="matrix(1 0 0 1 219 147 )" />
  </g>
</svg>