<?xml version="1.0" encoding="utf-8"?>
<svg version="1.1" xmlns:xlink="http://www.w3.org/1999/xlink" width="12px" height="12px" xmlns="http://www.w3.org/2000/svg">
  <g transform="matrix(1 0 0 1 -560 -1656 )">
    <path d="M 566 1656  C 569.36 1656  572 1658.64  572 1662  C 572 1665.36  569.36 1668  566 1668  C 562.64 1668  560 1665.36  560 1662  C 560 1658.64  562.64 1656  566 1656  Z " fill-rule="nonzero" fill="#797979" stroke="none" />
    <path d="M 566 1656.5  C 569.08 1656.5  571.5 1658.92  571.5 1662  C 571.5 1665.08  569.08 1667.5  566 1667.5  C 562.92 1667.5  560.5 1665.08  560.5 1662  C 560.5 1658.92  562.92 1656.5  566 1656.5  Z " stroke-width="1" stroke="#797979" fill="none" />
  </g>
</svg>