<?xml version="1.0" encoding="utf-8"?>
<svg version="1.1" xmlns:xlink="http://www.w3.org/1999/xlink" width="16px" height="16px" xmlns="http://www.w3.org/2000/svg">
  <g transform="matrix(1 0 0 1 -641 -1614 )">
    <path d="M 649 1614  C 653.48 1614  657 1617.52  657 1622  C 657 1626.48  653.48 1630  649 1630  C 644.52 1630  641 1626.48  641 1622  C 641 1617.52  644.52 1614  649 1614  Z " fill-rule="nonzero" fill="#ffffff" stroke="none" />
    <path d="M 649 1614.5  C 653.2 1614.5  656.5 1617.8  656.5 1622  C 656.5 1626.2  653.2 1629.5  649 1629.5  C 644.8 1629.5  641.5 1626.2  641.5 1622  C 641.5 1617.8  644.8 1614.5  649 1614.5  Z " stroke-width="1" stroke="#797979" fill="none" />
  </g>
</svg>