<?xml version="1.0" encoding="utf-8"?>
<svg version="1.1" xmlns:xlink="http://www.w3.org/1999/xlink" width="37px" height="39px" xmlns="http://www.w3.org/2000/svg">
  <g transform="matrix(1 0 0 1 -1118 -574 )">
    <path d="M 9.43900240384615 29.4192708333333  C 9.99489182692308 29.9835069444444  10.2728365384615 30.6643518518518  10.2728365384615 31.4618055555556  C 10.2728365384615 32.2592592592593  9.99489182692308 32.9401041666667  9.43900240384615 33.5043402777778  C 8.88311298076923 34.0685763888889  8.21233974358974 34.3506944444444  7.42668269230769 34.3506944444444  C 6.65584935897436 34.3506944444444  5.98878205128205 34.0648148148148  5.42548076923077 33.4930555555556  C 4.86217948717949 32.9212962962963  4.58052884615385 32.244212962963  4.58052884615385 31.4618055555556  C 4.58052884615385 30.6643518518518  4.85847355769231 29.9835069444444  5.41436298076923 29.4192708333333  C 5.97025240384615 28.8550347222222  6.64102564102564 28.5729166666667  7.42668269230769 28.5729166666667  C 8.21233974358974 28.5729166666667  8.88311298076923 28.8550347222222  9.43900240384615 29.4192708333333  Z M 20.5123197115385 34.0685763888889  C 21.0682091346154 34.6328125  21.3461538461538 35.3136574074074  21.3461538461538 36.1111111111111  C 21.3461538461538 36.9085648148148  21.0682091346154 37.5894097222222  20.5123197115385 38.1536458333333  C 19.9564302884615 38.7178819444444  19.2856570512821 39  18.5 39  C 17.7143429487179 39  17.0435697115385 38.7178819444444  16.4876802884615 38.1536458333333  C 15.9317908653846 37.5894097222222  15.6538461538462 36.9085648148148  15.6538461538462 36.1111111111111  C 15.6538461538462 35.3136574074074  15.9317908653846 34.6328125  16.4876802884615 34.0685763888889  C 17.0435697115385 33.5043402777778  17.7143429487179 33.2222222222222  18.5 33.2222222222222  C 19.2856570512821 33.2222222222222  19.9564302884615 33.5043402777778  20.5123197115385 34.0685763888889  Z M 4.85847355769231 18.1796875  C 5.41436298076923 18.7439236111111  5.69230769230769 19.4247685185185  5.69230769230769 20.2222222222222  C 5.69230769230769 21.0196759259259  5.41436298076923 21.7005208333333  4.85847355769231 22.2647569444444  C 4.30258413461539 22.8289930555556  3.6318108974359 23.1111111111111  2.84615384615385 23.1111111111111  C 2.0604967948718 23.1111111111111  1.38972355769231 22.8289930555556  0.833834134615385 22.2647569444444  C 0.277944711538462 21.7005208333333  0 21.0196759259259  0 20.2222222222222  C 0 19.4247685185185  0.277944711538462 18.7439236111111  0.833834134615385 18.1796875  C 1.38972355769231 17.6154513888889  2.0604967948718 17.3333333333333  2.84615384615385 17.3333333333333  C 3.6318108974359 17.3333333333333  4.30258413461539 17.6154513888889  4.85847355769231 18.1796875  Z M 31.5856370192308 29.4192708333333  C 32.1415264423077 29.9835069444444  32.4194711538462 30.6643518518518  32.4194711538462 31.4618055555556  C 32.4194711538462 32.244212962963  32.1378205128205 32.9212962962963  31.5745192307692 33.4930555555556  C 31.0112179487179 34.0648148148148  30.3441506410256 34.3506944444444  29.5733173076923 34.3506944444444  C 28.7876602564103 34.3506944444444  28.1168870192308 34.0685763888889  27.5609975961538 33.5043402777778  C 27.0051081730769 32.9401041666667  26.7271634615385 32.2592592592593  26.7271634615385 31.4618055555556  C 26.7271634615385 30.6643518518518  27.0051081730769 29.9835069444444  27.5609975961538 29.4192708333333  C 28.1168870192308 28.8550347222222  28.7876602564103 28.5729166666667  29.5733173076923 28.5729166666667  C 30.3589743589744 28.5729166666667  31.0297475961538 28.8550347222222  31.5856370192308 29.4192708333333  Z M 9.93930288461539 6.43229166666667  C 10.6360176282051 7.13946759259259  10.984375 7.98958333333334  10.984375 8.98263888888889  C 10.984375 9.97569444444445  10.6360176282051 10.8258101851852  9.93930288461539 11.5329861111111  C 9.24258814102564 12.240162037037  8.40504807692308 12.59375  7.42668269230769 12.59375  C 6.44831730769231 12.59375  5.61077724358974 12.240162037037  4.9140625 11.5329861111111  C 4.21734775641026 10.8258101851852  3.86899038461538 9.97569444444445  3.86899038461538 8.98263888888889  C 3.86899038461538 7.98958333333334  4.21734775641026 7.13946759259259  4.9140625 6.43229166666667  C 5.61077724358974 5.72511574074074  6.44831730769231 5.37152777777778  7.42668269230769 5.37152777777778  C 8.40504807692308 5.37152777777778  9.24258814102564 5.72511574074074  9.93930288461539 6.43229166666667  Z M 36.1661658653846 18.1796875  C 36.7220552884615 18.7439236111111  37 19.4247685185185  37 20.2222222222222  C 37 21.0196759259259  36.7220552884615 21.7005208333333  36.1661658653846 22.2647569444444  C 35.6102764423077 22.8289930555556  34.9395032051282 23.1111111111111  34.1538461538462 23.1111111111111  C 33.3681891025641 23.1111111111111  32.6974158653846 22.8289930555556  32.1415264423077 22.2647569444444  C 31.5856370192308 21.7005208333333  31.3076923076923 21.0196759259259  31.3076923076923 20.2222222222222  C 31.3076923076923 19.4247685185185  31.5856370192308 18.7439236111111  32.1415264423077 18.1796875  C 32.6974158653846 17.6154513888889  33.3681891025641 17.3333333333333  34.1538461538462 17.3333333333333  C 34.9395032051282 17.3333333333333  35.6102764423077 17.6154513888889  36.1661658653846 18.1796875  Z M 21.5240384615385 1.26388888888889  C 22.3541666666667 2.10648148148148  22.7692307692308 3.12962962962963  22.7692307692308 4.33333333333334  C 22.7692307692308 5.53703703703704  22.3541666666667 6.56018518518518  21.5240384615385 7.40277777777778  C 20.6939102564103 8.24537037037037  19.6858974358974 8.66666666666667  18.5 8.66666666666667  C 17.3141025641026 8.66666666666667  16.3060897435897 8.24537037037037  15.4759615384615 7.40277777777778  C 14.6458333333333 6.56018518518518  14.2307692307692 5.53703703703704  14.2307692307692 4.33333333333334  C 14.2307692307692 3.12962962962963  14.6458333333333 2.10648148148148  15.4759615384615 1.26388888888889  C 16.3060897435897 0.421296296296298  17.3141025641026 0  18.5 0  C 19.6858974358974 0  20.6939102564103 0.421296296296298  21.5240384615385 1.26388888888889  Z M 33.0865384615385 5.41666666666666  C 34.0649038461538 6.40972222222222  34.5540865384615 7.59837962962963  34.5540865384615 8.98263888888889  C 34.5540865384615 10.3819444444444  34.0649038461538 11.5743634259259  33.0865384615385 12.5598958333333  C 32.1081730769231 13.5454282407407  30.9370993589744 14.0381944444444  29.5733173076923 14.0381944444444  C 28.1947115384615 14.0381944444444  27.0199318910256 13.5454282407407  26.0489783653846 12.5598958333333  C 25.0780248397436 11.5743634259259  24.5925480769231 10.3819444444444  24.5925480769231 8.98263888888889  C 24.5925480769231 7.59837962962963  25.0780248397436 6.40972222222222  26.0489783653846 5.41666666666666  C 27.0199318910256 4.42361111111111  28.1947115384615 3.92708333333333  29.5733173076923 3.92708333333333  C 30.9370993589744 3.92708333333333  32.1081730769231 4.42361111111111  33.0865384615385 5.41666666666666  Z " fill-rule="nonzero" fill="#666666" stroke="none" transform="matrix(1 0 0 1 1118 574 )" />
  </g>
</svg>