<?xml version="1.0" encoding="utf-8"?>
<svg version="1.1" xmlns:xlink="http://www.w3.org/1999/xlink" width="17px" height="32px" xmlns="http://www.w3.org/2000/svg">
  <g transform="matrix(1 0 0 1 -1742 -398 )">
    <path d="M 16.8012987012987 7.2962962962963  C 16.9926406926407 7.49382716049383  17.0294372294372 7.70987654320988  16.9116883116883 7.94444444444444  C 16.7792207792208 8.17901234567901  16.5658008658009 8.2962962962963  16.2714285714286 8.2962962962963  L 11 8.2962962962963  L 11 31.4074074074074  C 11.325974025974 31.5802469135802  11.2597402597403 31.7222222222222  11.1272727272727 31.8333333333333  C 10.9948051948052 31.9444444444444  10.8255411255411 32  10.6194805194805 32  L 6.38051948051948 32  C 6.17445887445888 32  6.00519480519481 31.9444444444444  5.87272727272727 31.8333333333333  C 5.74025974025974 31.7222222222222  5.67402597402597 31.5802469135802  6 31.4074074074074  L 6 8.2962962962963  L 0.728571428571429 8.2962962962963  C 0.41948051948052 8.2962962962963  0.206060606060606 8.17901234567901  0.0883116883116883 7.94444444444444  C -0.0294372294372295 7.70987654320988  0.00735930735930734 7.49382716049383  0.198701298701299 7.2962962962963  L 7.92597402597403 0.185185185185187  C 8.07316017316017 0.0617283950617278  8.24242424242424 0  8.43376623376623 0  C 8.63982683982684 0  8.81645021645022 0.0617283950617278  8.96363636363636 0.185185185185187  L 16.8012987012987 7.2962962962963  Z " fill-rule="nonzero" fill="#000000" stroke="none" transform="matrix(1 0 0 1 1742 398 )" />
  </g>
</svg>