<?xml version="1.0" encoding="utf-8"?>
<svg version="1.1" xmlns:xlink="http://www.w3.org/1999/xlink" width="25px" height="25px" xmlns="http://www.w3.org/2000/svg">
  <g transform="matrix(1 0 0 1 -1975 -1504 )">
    <path d="M 1987.5 1504  C 1994.5 1504  2000 1509.5  2000 1516.5  C 2000 1523.5  1994.5 1529  1987.5 1529  C 1980.5 1529  1975 1523.5  1975 1516.5  C 1975 1509.5  1980.5 1504  1987.5 1504  Z " fill-rule="nonzero" fill="#ffffff" stroke="none" />
    <path d="M 1987.5 1504.5  C 1994.22 1504.5  1999.5 1509.78  1999.5 1516.5  C 1999.5 1523.22  1994.22 1528.5  1987.5 1528.5  C 1980.78 1528.5  1975.5 1523.22  1975.5 1516.5  C 1975.5 1509.78  1980.78 1504.5  1987.5 1504.5  Z " stroke-width="1" stroke="#797979" fill="none" />
  </g>
</svg>