<?xml version="1.0" encoding="utf-8"?>
<svg version="1.1" xmlns:xlink="http://www.w3.org/1999/xlink" width="215px" height="215px" xmlns="http://www.w3.org/2000/svg">
  <g transform="matrix(1 0 0 1 -2056 -1392 )">
    <path d="M 2163.5 1392  C 2223.7 1392  2271 1439.3  2271 1499.5  C 2271 1559.7  2223.7 1607  2163.5 1607  C 2103.3 1607  2056 1559.7  2056 1499.5  C 2056 1439.3  2103.3 1392  2163.5 1392  Z " fill-rule="nonzero" fill="#e9e5e5" stroke="none" />
    <path d="M 2163.5 1392.5  C 2223.42 1392.5  2270.5 1439.58  2270.5 1499.5  C 2270.5 1559.42  2223.42 1606.5  2163.5 1606.5  C 2103.58 1606.5  2056.5 1559.42  2056.5 1499.5  C 2056.5 1439.58  2103.58 1392.5  2163.5 1392.5  Z " stroke-width="1" stroke="#797979" fill="none" />
  </g>
</svg>