<?xml version="1.0" encoding="utf-8"?>
<svg version="1.1" xmlns:xlink="http://www.w3.org/1999/xlink" width="45px" height="45px" xmlns="http://www.w3.org/2000/svg">
  <g transform="matrix(1 0 0 1 -833 -1634 )">
    <path d="M 855.5 1634  C 868.1 1634  878 1643.9  878 1656.5  C 878 1669.1  868.1 1679  855.5 1679  C 842.9 1679  833 1669.1  833 1656.5  C 833 1643.9  842.9 1634  855.5 1634  Z " fill-rule="nonzero" fill="#b6b2b2" stroke="none" />
    <path d="M 855.5 1634.5  C 867.82 1634.5  877.5 1644.18  877.5 1656.5  C 877.5 1668.82  867.82 1678.5  855.5 1678.5  C 843.18 1678.5  833.5 1668.82  833.5 1656.5  C 833.5 1644.18  843.18 1634.5  855.5 1634.5  Z " stroke-width="1" stroke="#b6b2b2" fill="none" />
  </g>
</svg>