<?xml version="1.0" encoding="utf-8"?>
<svg version="1.1" xmlns:xlink="http://www.w3.org/1999/xlink" width="5px" height="5px" xmlns="http://www.w3.org/2000/svg">
  <g transform="matrix(1 0 0 1 -398 -601 )">
    <path d="M 400.5 601  C 401.9 601  403 602.1  403 603.5  C 403 604.9  401.9 606  400.5 606  C 399.1 606  398 604.9  398 603.5  C 398 602.1  399.1 601  400.5 601  Z " fill-rule="nonzero" fill="#797979" stroke="none" />
    <path d="M 400.5 601.5  C 401.62 601.5  402.5 602.38  402.5 603.5  C 402.5 604.62  401.62 605.5  400.5 605.5  C 399.38 605.5  398.5 604.62  398.5 603.5  C 398.5 602.38  399.38 601.5  400.5 601.5  Z " stroke-width="1" stroke="#797979" fill="none" />
  </g>
</svg>