<?xml version="1.0" encoding="utf-8"?>
<svg version="1.1" xmlns:xlink="http://www.w3.org/1999/xlink" width="39px" height="38px" xmlns="http://www.w3.org/2000/svg">
  <g transform="matrix(1 0 0 1 -265 -1459 )">
    <path d="M 38.6092184368737 33.8302277432712  C 38.8697394789579 34.0924775707384  39 34.3940648723257  39 34.7349896480331  C 39 35.0759144237405  38.8697394789579 35.3775017253278  38.6092184368737 35.639751552795  L 36.6553106212425 37.6066252587992  C 36.3947895791583 37.8688750862664  36.0951903807615 38  35.7565130260521 38  C 35.4178356713427 38  35.1182364729459 37.8688750862664  34.8577154308617 37.6066252587992  L 19.5 22.1469979296066  L 4.14228456913828 37.6066252587992  C 3.88176352705411 37.8688750862664  3.58216432865732 38  3.2434869739479 38  C 2.90480961923848 38  2.60521042084168 37.8688750862664  2.34468937875751 37.6066252587992  L 0.390781563126253 35.639751552795  C 0.130260521042085 35.3775017253278  0 35.0759144237405  0 34.7349896480331  C 0 34.3940648723257  0.130260521042085 34.0924775707384  0.390781563126253 33.8302277432712  L 18.6012024048096 15.4989648033126  C 18.8617234468938 15.2367149758454  19.1613226452906 15.1055900621118  19.5 15.1055900621118  C 19.8386773547094 15.1055900621118  20.1382765531062 15.2367149758454  20.3987975951904 15.4989648033126  L 38.6092184368737 33.8302277432712  Z M 38.6092184368737 18.7246376811594  C 38.8697394789579 18.9868875086266  39 19.2884748102139  39 19.6293995859213  C 39 19.9703243616287  38.8697394789579 20.271911663216  38.6092184368737 20.5341614906832  L 36.6553106212425 22.5010351966874  C 36.3947895791583 22.7632850241546  36.0951903807615 22.8944099378882  35.7565130260521 22.8944099378882  C 35.4178356713427 22.8944099378882  35.1182364729459 22.7632850241546  34.8577154308617 22.5010351966874  L 19.5 7.04140786749482  L 4.14228456913828 22.5010351966874  C 3.88176352705411 22.7632850241546  3.58216432865732 22.8944099378882  3.2434869739479 22.8944099378882  C 2.90480961923848 22.8944099378882  2.60521042084168 22.7632850241546  2.34468937875751 22.5010351966874  L 0.390781563126253 20.5341614906832  C 0.130260521042085 20.271911663216  0 19.9703243616287  0 19.6293995859213  C 0 19.2884748102139  0.130260521042085 18.9868875086266  0.390781563126253 18.7246376811594  L 18.6012024048096 0.393374741200827  C 18.8617234468938 0.131124913733606  19.1613226452906 0  19.5 0  C 19.8386773547094 0  20.1382765531062 0.131124913733606  20.3987975951904 0.393374741200827  L 38.6092184368737 18.7246376811594  Z " fill-rule="nonzero" fill="#fffcfc" stroke="none" transform="matrix(1 0 0 1 265 1459 )" />
  </g>
</svg>