<?xml version="1.0" encoding="utf-8"?>
<svg version="1.1" xmlns:xlink="http://www.w3.org/1999/xlink" width="52px" height="52px" xmlns="http://www.w3.org/2000/svg">
  <g transform="matrix(1 0 0 1 -344 -578 )">
    <path d="M 370 578  C 384.56 578  396 589.44  396 604  C 396 618.56  384.56 630  370 630  C 355.44 630  344 618.56  344 604  C 344 589.44  355.44 578  370 578  Z " fill-rule="nonzero" fill="#ffffff" stroke="none" />
    <path d="M 370 578.5  C 384.28 578.5  395.5 589.72  395.5 604  C 395.5 618.28  384.28 629.5  370 629.5  C 355.72 629.5  344.5 618.28  344.5 604  C 344.5 589.72  355.72 578.5  370 578.5  Z " stroke-width="1" stroke="#797979" fill="none" />
  </g>
</svg>